<svg width="125" height="19" viewBox="0 0 125 19" fill="none" xmlns="http://www.w3.org/2000/svg">
<path d="M12.2 1.008V5.232H5.528V7.584H10.328V11.592H5.528V18H0.2V1.008H12.2ZM24.9007 15.432H19.2367L18.3967 18H12.8047L19.0207 1.008H25.1647L31.3567 18H25.7407L24.9007 15.432ZM23.6047 11.424L22.0687 6.696L20.5327 11.424H23.6047ZM38.4712 13.752H45.2872V18H32.5672V13.992L39.2872 5.232H32.5672V1.008H45.2872V5.016L38.4712 13.752ZM55.9644 18.168C54.3644 18.168 52.8924 17.792 51.5484 17.04C50.2204 16.288 49.1644 15.248 48.3804 13.92C47.5964 12.592 47.2044 11.096 47.2044 9.432C47.2044 7.768 47.5964 6.272 48.3804 4.944C49.1644 3.616 50.2204 2.584 51.5484 1.848C52.8924 1.096 54.3644 0.719999 55.9644 0.719999C57.5644 0.719999 59.0284 1.096 60.3564 1.848C61.6844 2.584 62.7324 3.616 63.5004 4.944C64.2844 6.272 64.6764 7.768 64.6764 9.432C64.6764 11.096 64.2844 12.592 63.5004 13.92C62.7324 15.248 61.6764 16.288 60.3324 17.04C59.0044 17.792 57.5484 18.168 55.9644 18.168ZM55.9644 13.2C57.0204 13.2 57.8364 12.864 58.4124 12.192C58.9884 11.504 59.2764 10.584 59.2764 9.432C59.2764 8.264 58.9884 7.344 58.4124 6.672C57.8364 5.984 57.0204 5.64 55.9644 5.64C54.8924 5.64 54.0684 5.984 53.4924 6.672C52.9164 7.344 52.6284 8.264 52.6284 9.432C52.6284 10.584 52.9164 11.504 53.4924 12.192C54.0684 12.864 54.8924 13.2 55.9644 13.2ZM72.5024 13.752H79.3184V18H66.5984V13.992L73.3184 5.232H66.5984V1.008H79.3184V5.016L72.5024 13.752ZM87.0436 5.256V7.344H92.3236V11.352H87.0436V13.752H93.0436V18H81.7156V1.008H93.0436V5.256H87.0436ZM100.38 13.968H105.516V18H95.0516V1.008H100.38V13.968ZM118.088 15.432H112.424L111.584 18H105.992L112.208 1.008H118.352L124.544 18H118.928L118.088 15.432ZM116.792 11.424L115.256 6.696L113.72 11.424H116.792Z" fill="#F2F2F2"/>
</svg>
